<svg xmlns="http://www.w3.org/2000/svg" viewBox="415 270 425 255">
    <defs>
      <linearGradient id="gradient_footer" gradientUnits="userSpaceOnUse" x1="502.77274" y1="527.17542" x2="484.57614" y2="287.79922">
        <stop offset="0" stopColor="#2C74DA"/>
        <stop offset="1" stopColor="#45D3DB"/>
      </linearGradient>
    </defs>
    <path fill="url(#gradient_footer)" d="M472.272 271.908C484.962 271.923 570.243 270.724 576.8 273.111C577.067 276.456 563.31 294.121 560.441 296.368C558.074 299.713 555.497 302.32 552.422 304.991C534.777 304.866 506.78 303.871 489.993 305.079C475.171 313.621 477.926 325.621 478.014 340.29C478.172 352.271 478.189 364.253 478.065 376.234C473.03 383.11 465.121 390.509 459.268 397.419C464.462 404.764 473.272 411.687 478.042 419.334C478.367 432.138 477.857 445.195 478.02 458.019C478.202 472.265 475.296 480.151 489.231 488.646C509.425 489.143 531.041 488.705 551.427 488.835C555.91 492.518 578.107 516.392 577.15 521.499C576.047 522.451 575.422 523.106 573.711 523.138C563.38 523.33 552.354 523.222 542.078 523.21L471.565 523.132C464.736 517.206 449.053 500.654 443.26 493.864L443.129 422.993C436.65 415.923 422.896 404.18 417.961 397.11C420.835 392.418 438.112 376.166 443.238 371.163L443.252 301.01C446.752 297.043 451.849 292.217 455.676 288.394C460.374 283.567 467.289 276.081 472.272 271.908Z"/>
    <path fill="#49C6D9" d="M472.272 271.908C484.962 271.923 570.243 270.724 576.8 273.111C577.067 276.456 563.31 294.121 560.441 296.368C549.535 291.049 524.592 295.499 511.732 293.811C500.162 292.771 488.584 291.284 476.989 290.489C469.407 289.969 460.674 296.542 455.676 288.394C460.374 283.567 467.289 276.081 472.272 271.908Z"/>
    <path fill="#378DCE" d="M493.825 385.093C504.464 384.097 526.251 384.776 537.534 384.795L622.602 384.953C629.626 391.421 638.077 400.541 644.836 407.529L713.547 407.571L749.858 444.393L812.811 444.346C818.468 431.788 835.804 434.089 834.25 450.941C828.47 461.473 818.578 460.616 812.855 450.511L747.42 450.471L711.08 413.369L642.557 413.398C634.854 405.961 627.307 398.364 619.919 390.614L537.08 390.636C523.825 390.637 510.135 390.709 496.855 390.536C495.089 390.513 495.192 390.305 493.792 389.343C493.079 386.872 493.179 387.902 493.825 385.093Z"/>
    <path fill="white" d="M821.59 443.376C823.086 442.609 824.883 442.73 826.263 443.69C827.643 444.651 828.38 446.295 828.18 447.964C827.98 449.633 826.875 451.056 825.307 451.663C823.051 452.537 820.505 451.491 819.515 449.283C818.525 447.076 819.437 444.48 821.59 443.376Z"/>
    <path fill="#49C6D9" d="M733.808 304.469C762.009 302.708 739.674 344.086 726.355 319.045L679.086 319.278C673.642 325.287 668.115 331.222 662.508 337.079C650.634 337.568 636.934 337.314 624.921 337.379C616.207 347.447 604.556 359.133 595.015 368.415C569.042 369.057 540.82 368.506 514.688 368.494C509.851 368.586 495.586 369.765 492.865 366.122C493.202 364.183 493.126 364.768 494.773 363.081C497.85 361.819 581.392 362.561 592.738 362.584C602.771 352.377 612.684 342.052 622.475 331.611C634.816 331.673 647.157 331.669 659.498 331.598C665.025 325.361 670.661 319.22 676.403 313.179L725.936 313.114L726.068 312.716C727.779 307.709 729.411 306.62 733.808 304.469Z"/>
    <path fill="white" d="M736.325 310.98C738.684 310.769 740.807 312.412 741.195 314.749C741.582 317.086 740.103 319.326 737.802 319.888C736.151 320.291 734.414 319.736 733.303 318.451C732.192 317.165 731.894 315.366 732.531 313.791C733.168 312.216 734.633 311.131 736.325 310.98Z"/>
    <path fill="#378DCE" d="M493.896 428.781C503.797 428.056 520.735 428.65 531.484 428.669L603.248 428.699C609.656 434.862 616.604 442.441 622.958 448.88L660.015 449.227C668.767 457.381 677.629 467.542 686.546 476.191L727.69 475.984C732.231 462.773 750.046 464.532 749.344 481.091C744.915 492.102 733.931 492.493 727.79 481.818L683.988 481.931C675.299 473.862 665.73 463.477 657.144 454.873C645.058 454.695 632.456 454.905 620.328 454.932C614.063 448.976 606.756 440.894 600.542 434.549L532.552 434.554C527.632 434.562 496.446 435.456 493.979 433.31C493.179 431.312 493.409 431.001 493.896 428.781Z"/>
    <path fill="white" d="M737.056 474.153C738.609 473.632 740.324 473.989 741.54 475.087C742.756 476.186 743.285 477.855 742.923 479.453C742.562 481.052 741.366 482.331 739.796 482.799C737.424 483.506 734.924 482.182 734.176 479.823C733.429 477.464 734.71 474.941 737.056 474.153Z"/>
    <path fill="#378DCE" d="M493.815 406.844C504.091 405.982 523.627 406.583 534.712 406.585L613.178 406.758C619.898 412.71 629.652 423.751 636.614 430.685L681.298 430.635C686.416 435.287 691.461 440.511 696.359 445.429C707.345 440.271 719.478 449.292 710.761 462.295C710.42 462.545 710.079 462.795 709.738 463.045C694.828 471.576 692.692 460.456 691.406 449.363C691.243 447.954 681.148 438.453 678.93 436.333L633.554 436.288C626.391 429.648 617.471 419.714 610.384 412.443C572.47 411.839 534.355 412.921 496.437 412.387C495.163 412.369 494.579 412.017 493.66 411.248C492.958 408.974 493.235 409.428 493.815 406.844Z"/>
    <path fill="white" d="M702.094 450.342C704.425 450.005 706.624 451.517 707.143 453.815C707.663 456.112 706.328 458.423 704.079 459.122C702.457 459.626 700.69 459.177 699.505 457.961C698.321 456.744 697.918 454.966 698.465 453.358C699.011 451.75 700.413 450.585 702.094 450.342Z"/>
    <path fill="#49C6D9" d="M694.295 275.663C722.584 273.774 701.123 314.461 686.789 289.888L601.593 289.361C590.28 301.5 578.876 313.552 567.381 325.518L515.781 325.508C509.616 325.484 497.283 327.115 493.715 323.681C493.193 321.661 493.115 322.48 493.996 320.605C497.635 318.423 556.548 319.549 564.704 319.599L598.861 283.484C626.368 282.786 658.572 283.707 686.453 283.777C689.004 278.938 689.38 278.243 694.295 275.663Z"/>
    <path fill="white" d="M695.804 282.195C698.015 281.343 700.507 282.36 701.489 284.517C702.47 286.673 701.601 289.221 699.507 290.328C698.037 291.105 696.258 291.003 694.887 290.064C693.515 289.125 692.777 287.504 692.97 285.853C693.162 284.202 694.254 282.794 695.804 282.195Z"/>
    <path fill="#378DCE" d="M495.804 471.287L574.656 471.331L604.652 502.902C630.062 502.749 655.488 502.768 680.875 502.693C690.097 503.509 687.915 500.046 692.561 496.974C703.327 489.855 710.23 498.939 709.378 508.914C704.614 519.21 693.601 519.23 688.067 508.715L602.055 508.748C593.037 500.383 580.589 486.575 571.696 477.336L523.858 477.353C515.499 477.383 506.713 477.569 498.371 477.184C496.722 477.108 495.882 476.545 494.845 475.318C494.573 473.045 494.692 473.699 495.804 471.287Z"/>
    <path fill="white" d="M698.048 500.984C700.497 500.577 702.818 502.21 703.264 504.652C703.709 507.094 702.113 509.441 699.678 509.925C698.069 510.245 696.412 509.673 695.343 508.427C694.275 507.182 693.96 505.457 694.521 503.915C695.081 502.373 696.429 501.253 698.048 500.984Z"/>
    <path fill="#49C6D9" d="M825.023 342.513C854.112 340.504 830.95 381.68 817.519 356.413L701.499 356.444C695.523 362.926 689.492 369.637 683.232 375.823C670.61 376.414 655.612 376.102 642.812 376.154C637.105 376.176 624.532 378.143 620.21 374.348C619.723 372.349 619.617 373.2 620.7 371.268C623.988 369.068 672.903 370.128 680.486 370.146C685.873 364.964 693.229 356.43 698.446 350.691C737.662 350.132 778.231 350.533 817.523 350.63C819.678 345.747 820.309 345.018 825.023 342.513Z"/>
    <path fill="white" d="M826.39 349.04C828.697 348.003 831.409 349.01 832.481 351.301C833.552 353.593 832.585 356.32 830.309 357.425C828.807 358.154 827.029 358.017 825.655 357.068C824.282 356.118 823.527 354.502 823.679 352.839C823.831 351.177 824.867 349.725 826.39 349.04Z"/>
    <path fill="#49C6D9" d="M654.359 388.572C679.276 387.9 707.349 388.584 732.436 388.668L745.886 402.522L806.282 402.482C808.594 397.931 810.764 394.712 816.565 394.351C819.442 394.171 822.255 395.247 824.278 397.3C827.609 400.677 827.692 403.884 827.662 408.256C823.123 418.797 811.753 419.269 806.457 408.526C785.539 408.46 764.621 408.501 743.704 408.648C739.023 404.019 734.362 399.133 729.755 394.412C721.41 394.388 657.39 395.067 655.011 393.446C653.968 391.691 654.25 390.642 654.359 388.572Z"/>
    <path fill="white" d="M815.911 400.974C818.219 400.342 820.609 401.667 821.295 403.958C821.982 406.25 820.715 408.671 818.44 409.412C816.92 409.907 815.251 409.54 814.079 408.453C812.906 407.365 812.416 405.728 812.796 404.175C813.177 402.622 814.369 401.397 815.911 400.974Z"/>
    <path fill="#378DCE" d="M494.425 450.097C502.805 449.385 516.676 449.786 525.575 449.795L582.103 449.994C589.67 457.234 598.383 467.006 605.878 474.768L634.271 474.561C640.934 460.047 658.868 465.661 655.629 480.877C650.099 491.393 640.342 490.296 634.492 480.71L603.324 480.781L579.197 455.764L524.704 455.972C518.636 455.993 497.629 457.112 494.079 454.32C493.489 452.331 493.678 452.156 494.425 450.097Z"/>
    <path fill="white" d="M644.269 472.802C646.668 472.245 649.071 473.712 649.671 476.101C650.271 478.49 648.847 480.919 646.469 481.562C644.893 481.988 643.209 481.53 642.066 480.364C640.923 479.198 640.497 477.506 640.954 475.938C641.411 474.37 642.678 473.171 644.269 472.802Z"/>
    <path fill="#49C6D9" d="M642.69 303.189C650.017 302.846 656.36 307.163 655.167 315.248C654.644 318.583 652.784 321.561 650.016 323.494C643.025 328.275 637.592 323.32 634.059 317.514L609.818 317.509C600.409 327.288 591.728 337.338 582.026 347.198C562.067 348.178 534.861 347.301 514.355 347.259C508.997 347.36 496.537 348.587 493.084 344.865C493.355 342.92 493.33 343.48 494.903 341.731C499.44 340.136 569.426 341.262 579.626 341.283L606.597 311.768C615.537 311.577 624.9 311.733 633.879 311.761C635.736 306.198 637.21 305.033 642.69 303.189Z"/>
    <path fill="white" d="M643.459 309.704C645.882 309.027 648.394 310.441 649.075 312.862C649.755 315.284 648.347 317.799 645.927 318.484C643.5 319.171 640.977 317.758 640.295 315.33C639.612 312.902 641.03 310.381 643.459 309.704Z"/>
    <path fill="#49C6D9" d="M766.236 363.816C775.938 363.093 778.458 365.913 780.911 374.93C776.852 387.939 765.492 389.691 758.92 377.798L728.438 377.728C723.448 377.642 708.84 379.225 705.911 376.055C705.584 373.828 705.367 374.516 706.226 372.745C708.714 371.319 752.562 371.937 758.936 371.948C761.184 367.17 761.724 366.519 766.236 363.816Z"/>
    <path fill="white" d="M767.764 370.408C770.069 369.327 772.814 370.336 773.871 372.652C774.929 374.968 773.894 377.702 771.568 378.737C769.273 379.758 766.585 378.74 765.541 376.456C764.498 374.172 765.49 371.473 767.764 370.408Z"/>
    <path fill="#49C6D9" d="M667.411 341.929C670.843 341.734 675.9 341.79 678.376 344.713C688.822 357.041 669.045 373.122 660.301 356.849C659.575 355.498 658.534 355.76 657.031 355.65C652.294 355.626 636.787 357.085 633.777 353.742C633.996 351.802 633.78 352.507 635.396 350.846C641.104 349.773 653.261 350.362 659.671 350.495C662.086 345.394 662.301 344.552 667.411 341.929Z"/>
    <path fill="white" d="M668.859 348.409C670.445 347.797 672.239 348.118 673.515 349.242C674.79 350.366 675.334 352.106 674.927 353.756C674.52 355.407 673.228 356.693 671.576 357.095C669.24 357.662 666.865 356.319 666.148 354.025C665.43 351.731 666.616 349.274 668.859 348.409Z"/>
</svg>
